# xmcd
#
# Track frame offsets: 
#        150
#        19620
#        38616
#        55406
#        73987
#        91402
#        108981
#        124074
#        139800
#        160824
#        177318
#        192151
#
# Disc length: 2766 seconds
#
# Revision: 2
# Processed by: cddbd v1.5.2PL0 Copyright (c) Steve Scherf et al.
# Submitted via: ExactAudioCopy v1.0b1
#
DISCID=a30acc0c
DTITLE=The Bellamy Brothers - The Reggae Cowboys
DYEAR=1900
DGENRE=Country
TTITLE0=Almost Jamica
TTITLE1=I'll Be Your Baby Tonight
TTITLE2=Let Your Love Flow
TTITLE3=Get Into Reggae Cowwboy (live)
TTITLE4=Some Broken Hearts
TTITLE5=I'll Fly Away
TTITLE6=I Make Her Laugh
TTITLE7=Bye Bye Love
TTITLE8=Mama Likes To Reggae (live)
TTITLE9=Having Too Much Fun
TTITLE10=I Love Her Mind
TTITLE11=Strong Weakness
EXTD=
EXTT0=
EXTT1=
EXTT2=
EXTT3=
EXTT4=
EXTT5=
EXTT6=
EXTT7=
EXTT8=
EXTT9=
EXTT10=
EXTT11=
PLAYORDER=
